<svg width="18" height="22" viewBox="0 0 18 22" fill="none" xmlns="http://www.w3.org/2000/svg">
<path d="M14.4947 2.09559C13.3758 1.09601 12.0056 0.420459 10.5314 0.141653C9.05714 -0.137153 7.5348 -0.00866331 6.12817 0.513295C4.72154 1.03525 3.48388 1.93092 2.54838 3.1039C1.61288 4.27688 1.01496 5.68277 0.818969 7.17026C0.642951 8.47453 0.783725 9.80202 1.22938 11.0404C1.67503 12.2787 2.41245 13.3915 3.37922 14.2845C3.97707 14.8088 4.45949 15.4515 4.79591 16.172C5.13233 16.8925 5.31541 17.675 5.33355 18.47V18.6176C5.33452 19.5144 5.6912 20.3742 6.32534 21.0083C6.95947 21.6424 7.81926 21.9991 8.71605 22.0001H9.28439C10.1812 21.9991 11.041 21.6424 11.6751 21.0083C12.3092 20.3742 12.6659 19.5144 12.6669 18.6176V18.1143C12.6806 17.4117 12.846 16.7203 13.1516 16.0874C13.4573 15.4546 13.896 14.8953 14.4379 14.4477C15.3166 13.6781 16.0217 12.7306 16.5066 11.6679C16.9915 10.6052 17.245 9.45159 17.2504 8.28352C17.2557 7.11546 17.0128 5.95959 16.5378 4.89248C16.0627 3.82538 15.3663 2.8714 14.4947 2.09376V2.09559ZM9.28439 20.1668H8.71605C8.30534 20.1663 7.91158 20.0029 7.62116 19.7125C7.33074 19.4221 7.16737 19.0283 7.16689 18.6176C7.16689 18.6176 7.16047 18.3793 7.15955 18.3334H10.8336V18.6176C10.8331 19.0283 10.6697 19.4221 10.3793 19.7125C10.0889 20.0029 9.6951 20.1663 9.28439 20.1668ZM13.2261 13.0708C12.1824 13.9761 11.4286 15.1689 11.0591 16.5001H9.91689V9.91476C10.4512 9.72585 10.9141 9.37646 11.2423 8.9144C11.5705 8.45233 11.7479 7.90016 11.7502 7.33342C11.7502 7.09031 11.6536 6.85715 11.4817 6.68524C11.3098 6.51333 11.0767 6.41676 10.8336 6.41676C10.5904 6.41676 10.3573 6.51333 10.1854 6.68524C10.0135 6.85715 9.91689 7.09031 9.91689 7.33342C9.91689 7.57654 9.82031 7.8097 9.6484 7.98161C9.47649 8.15351 9.24333 8.25009 9.00022 8.25009C8.7571 8.25009 8.52395 8.15351 8.35204 7.98161C8.18013 7.8097 8.08355 7.57654 8.08355 7.33342C8.08355 7.09031 7.98698 6.85715 7.81507 6.68524C7.64316 6.51333 7.41 6.41676 7.16689 6.41676C6.92377 6.41676 6.69061 6.51333 6.5187 6.68524C6.3468 6.85715 6.25022 7.09031 6.25022 7.33342C6.25257 7.90016 6.42996 8.45233 6.75813 8.9144C7.0863 9.37646 7.54922 9.72585 8.08355 9.91476V16.5001H6.87172C6.45829 15.1335 5.68291 13.9043 4.62772 12.9425C3.73209 12.108 3.09388 11.0346 2.7884 9.8492C2.48292 8.66376 2.52291 7.41566 2.90366 6.25221C3.28441 5.08876 3.99003 4.05849 4.93725 3.28301C5.88446 2.50752 7.03375 2.01917 8.24947 1.87559C8.50149 1.84746 8.75488 1.83338 9.00847 1.83342C10.5829 1.82874 12.1028 2.40966 13.2728 3.46326C13.9509 4.06789 14.4926 4.80974 14.8623 5.63963C15.2319 6.46952 15.4209 7.3685 15.4167 8.27697C15.4125 9.18544 15.2153 10.0826 14.8381 10.9091C14.4609 11.7356 13.9124 12.4724 13.2288 13.0708H13.2261Z" fill="#374957"/>
<path d="M14.4947 2.09559C13.3758 1.09601 12.0056 0.420459 10.5314 0.141653C9.05714 -0.137153 7.5348 -0.00866331 6.12817 0.513295C4.72154 1.03525 3.48388 1.93092 2.54838 3.1039C1.61288 4.27688 1.01496 5.68277 0.818969 7.17026C0.642951 8.47453 0.783725 9.80202 1.22938 11.0404C1.67503 12.2787 2.41245 13.3915 3.37922 14.2845C3.97707 14.8088 4.45949 15.4515 4.79591 16.172C5.13233 16.8925 5.31541 17.675 5.33355 18.47V18.6176C5.33452 19.5144 5.6912 20.3742 6.32534 21.0083C6.95947 21.6424 7.81926 21.9991 8.71605 22.0001H9.28439C10.1812 21.9991 11.041 21.6424 11.6751 21.0083C12.3092 20.3742 12.6659 19.5144 12.6669 18.6176V18.1143C12.6806 17.4117 12.846 16.7203 13.1516 16.0874C13.4573 15.4546 13.896 14.8953 14.4379 14.4477C15.3166 13.6781 16.0217 12.7306 16.5066 11.6679C16.9915 10.6052 17.245 9.45159 17.2504 8.28352C17.2557 7.11546 17.0128 5.95959 16.5378 4.89248C16.0627 3.82538 15.3663 2.8714 14.4947 2.09376V2.09559ZM9.28439 20.1668H8.71605C8.30534 20.1663 7.91158 20.0029 7.62116 19.7125C7.33074 19.4221 7.16737 19.0283 7.16689 18.6176C7.16689 18.6176 7.16047 18.3793 7.15955 18.3334H10.8336V18.6176C10.8331 19.0283 10.6697 19.4221 10.3793 19.7125C10.0889 20.0029 9.6951 20.1663 9.28439 20.1668ZM13.2261 13.0708C12.1824 13.9761 11.4286 15.1689 11.0591 16.5001H9.91689V9.91476C10.4512 9.72585 10.9141 9.37646 11.2423 8.9144C11.5705 8.45233 11.7479 7.90016 11.7502 7.33342C11.7502 7.09031 11.6536 6.85715 11.4817 6.68524C11.3098 6.51333 11.0767 6.41676 10.8336 6.41676C10.5904 6.41676 10.3573 6.51333 10.1854 6.68524C10.0135 6.85715 9.91689 7.09031 9.91689 7.33342C9.91689 7.57654 9.82031 7.8097 9.6484 7.98161C9.47649 8.15351 9.24333 8.25009 9.00022 8.25009C8.7571 8.25009 8.52395 8.15351 8.35204 7.98161C8.18013 7.8097 8.08355 7.57654 8.08355 7.33342C8.08355 7.09031 7.98698 6.85715 7.81507 6.68524C7.64316 6.51333 7.41 6.41676 7.16689 6.41676C6.92377 6.41676 6.69061 6.51333 6.5187 6.68524C6.3468 6.85715 6.25022 7.09031 6.25022 7.33342C6.25257 7.90016 6.42996 8.45233 6.75813 8.9144C7.0863 9.37646 7.54922 9.72585 8.08355 9.91476V16.5001H6.87172C6.45829 15.1335 5.68291 13.9043 4.62772 12.9425C3.73209 12.108 3.09388 11.0346 2.7884 9.8492C2.48292 8.66376 2.52291 7.41566 2.90366 6.25221C3.28441 5.08876 3.99003 4.05849 4.93725 3.28301C5.88446 2.50752 7.03375 2.01917 8.24947 1.87559C8.50149 1.84746 8.75488 1.83338 9.00847 1.83342C10.5829 1.82874 12.1028 2.40966 13.2728 3.46326C13.9509 4.06789 14.4926 4.80974 14.8623 5.63963C15.2319 6.46952 15.4209 7.3685 15.4167 8.27697C15.4125 9.18544 15.2153 10.0826 14.8381 10.9091C14.4609 11.7356 13.9124 12.4724 13.2288 13.0708H13.2261Z" fill="white"/>
</svg>
