<svg width="22" height="22" viewBox="0 0 22 22" fill="none" xmlns="http://www.w3.org/2000/svg">
<g clip-path="url(#clip0_226_147)">
<path d="M11 10.9999C12.0878 10.9999 13.1512 10.6774 14.0556 10.073C14.9601 9.46868 15.6651 8.60969 16.0813 7.6047C16.4976 6.59971 16.6065 5.49384 16.3943 4.42695C16.1821 3.36005 15.6583 2.38004 14.8891 1.61085C14.1199 0.841665 13.1399 0.317841 12.073 0.105622C11.0061 -0.106596 9.90024 0.00232204 8.89524 0.418604C7.89025 0.834886 7.03127 1.53983 6.42692 2.44431C5.82257 3.34878 5.5 4.41214 5.5 5.49994C5.50146 6.95819 6.08139 8.35629 7.11252 9.38742C8.14366 10.4186 9.54176 10.9985 11 10.9999ZM11 1.83327C11.7252 1.83327 12.4341 2.04832 13.0371 2.45122C13.6401 2.85412 14.11 3.42677 14.3876 4.09677C14.6651 4.76677 14.7377 5.50401 14.5962 6.21527C14.4547 6.92654 14.1055 7.57987 13.5927 8.09267C13.0799 8.60546 12.4266 8.95468 11.7153 9.09616C11.0041 9.23763 10.2668 9.16502 9.59683 8.8875C8.92683 8.60998 8.35418 8.14001 7.95128 7.53703C7.54838 6.93405 7.33333 6.22514 7.33333 5.49994C7.33333 4.52748 7.71964 3.59485 8.40728 2.90722C9.09491 2.21958 10.0275 1.83327 11 1.83327Z" fill="white"/>
<path d="M11 12.8339C8.81271 12.8363 6.7157 13.7063 5.16905 15.2529C3.6224 16.7996 2.75243 18.8966 2.75 21.0839C2.75 21.327 2.84658 21.5602 3.01849 21.7321C3.19039 21.904 3.42355 22.0006 3.66667 22.0006C3.90978 22.0006 4.14294 21.904 4.31485 21.7321C4.48676 21.5602 4.58333 21.327 4.58333 21.0839C4.58333 19.3821 5.25937 17.75 6.46273 16.5466C7.66609 15.3433 9.29819 14.6672 11 14.6672C12.7018 14.6672 14.3339 15.3433 15.5373 16.5466C16.7406 17.75 17.4167 19.3821 17.4167 21.0839C17.4167 21.327 17.5132 21.5602 17.6852 21.7321C17.8571 21.904 18.0902 22.0006 18.3333 22.0006C18.5764 22.0006 18.8096 21.904 18.9815 21.7321C19.1534 21.5602 19.25 21.327 19.25 21.0839C19.2476 18.8966 18.3776 16.7996 16.831 15.2529C15.2843 13.7063 13.1873 12.8363 11 12.8339Z" fill="white"/>
</g>
<defs>
<clipPath id="clip0_226_147">
<rect width="22" height="22" fill="white"/>
</clipPath>
</defs>
</svg>
