<svg width="22" height="22" viewBox="0 0 22 22" fill="none" xmlns="http://www.w3.org/2000/svg">
<g clip-path="url(#clip0_226_142)">
<path d="M0 10.9993C0 10.7562 0.0965771 10.5231 0.268485 10.3512C0.440394 10.1792 0.673552 10.0827 0.916667 10.0827H6.41667C6.65978 10.0827 6.89294 10.1792 7.06485 10.3512C7.23676 10.5231 7.33333 10.7562 7.33333 10.9993C7.33333 11.2424 7.23676 11.4756 7.06485 11.6475C6.89294 11.8194 6.65978 11.916 6.41667 11.916H0.916667C0.673552 11.916 0.440394 11.8194 0.268485 11.6475C0.0965771 11.4756 0 11.2424 0 10.9993ZM19.1455 10.1807C19.6024 9.60979 19.9158 8.93761 20.0593 8.22056C20.2029 7.5035 20.1724 6.76249 19.9705 6.05964C19.7686 5.35679 19.4011 4.7126 18.8988 4.18109C18.3966 3.64957 17.7742 3.24622 17.0839 3.00485C16.3936 2.76349 15.6555 2.69115 14.9315 2.7939C14.2074 2.89665 13.5186 3.17149 12.9227 3.59538C12.3268 4.01927 11.8412 4.57985 11.5067 5.23012C11.1722 5.88039 10.9984 6.60139 11 7.33266C11 7.57578 11.0966 7.80894 11.2685 7.98085C11.4404 8.15275 11.6736 8.24933 11.9167 8.24933C12.1598 8.24933 12.3929 8.15275 12.5648 7.98085C12.7368 7.80894 12.8333 7.57578 12.8333 7.33266C12.8333 6.78877 12.9946 6.25708 13.2968 5.80485C13.599 5.35261 14.0285 5.00014 14.531 4.792C15.0335 4.58385 15.5864 4.5294 16.1198 4.63551C16.6533 4.74161 17.1433 5.00353 17.5279 5.38812C17.9125 5.77272 18.1744 6.26272 18.2805 6.79617C18.3866 7.32961 18.3321 7.88255 18.124 8.38504C17.9159 8.88754 17.5634 9.31703 17.1112 9.61921C16.6589 9.92138 16.1272 10.0827 15.5833 10.0827H10.0833C9.84022 10.0827 9.60706 10.1792 9.43515 10.3512C9.26324 10.5231 9.16667 10.7562 9.16667 10.9993C9.16667 11.2424 9.26324 11.4756 9.43515 11.6475C9.60706 11.8194 9.84022 11.916 10.0833 11.916H18.3333C18.8196 11.916 19.2859 12.1092 19.6297 12.453C19.9735 12.7968 20.1667 13.2631 20.1667 13.7493C20.1584 15.8916 17.1591 16.1767 16.4478 14.3607C16.3668 14.1315 16.1981 13.9438 15.9787 13.8389C15.7594 13.7341 15.5073 13.7206 15.2781 13.8016C15.0488 13.8825 14.8611 14.0513 14.7563 14.2706C14.6514 14.49 14.638 14.742 14.7189 14.9712C16.1471 18.7131 21.956 17.9467 22 13.7493C21.9984 12.9192 21.7152 12.1142 21.1967 11.466C20.6781 10.8177 19.955 10.3646 19.1455 10.1807ZM10.0833 14.666H0.916667C0.673552 14.666 0.440394 14.7626 0.268485 14.9345C0.0965771 15.1064 0 15.3396 0 15.5827C0 15.8258 0.0965771 16.0589 0.268485 16.2308C0.440394 16.4028 0.673552 16.4993 0.916667 16.4993H10.0833C10.5696 16.4993 11.0359 16.6925 11.3797 17.0363C11.7235 17.3801 11.9167 17.8464 11.9167 18.3327C11.9084 20.4749 8.90908 20.76 8.19775 18.9441C8.15766 18.8306 8.09561 18.7261 8.01514 18.6365C7.93466 18.547 7.83734 18.4742 7.72872 18.4223C7.62011 18.3703 7.50233 18.3403 7.38212 18.3339C7.2619 18.3275 7.1416 18.3448 7.02808 18.3849C6.91457 18.425 6.81006 18.4871 6.72052 18.5675C6.63099 18.648 6.55818 18.7453 6.50625 18.8539C6.45433 18.9626 6.42431 19.0803 6.4179 19.2005C6.4115 19.3208 6.42883 19.4411 6.46892 19.5546C7.89708 23.2964 13.706 22.5301 13.75 18.3327C13.75 17.3602 13.3637 16.4276 12.6761 15.7399C11.9884 15.0523 11.0558 14.666 10.0833 14.666ZM0.916667 7.33266H6.41667C7.38913 7.33266 8.32176 6.94636 9.00939 6.25872C9.69703 5.57109 10.0833 4.63846 10.0833 3.666C10.0393 -0.533252 4.22858 -1.29684 2.80225 2.44408C2.72129 2.67334 2.73472 2.92537 2.83959 3.14472C2.94445 3.36408 3.13216 3.53279 3.36142 3.61375C3.59067 3.69471 3.8427 3.68127 4.06206 3.57641C4.28141 3.47155 4.45013 3.28384 4.53108 3.05458C5.24333 1.23775 8.24175 1.52375 8.25 3.666C8.25 4.15223 8.05685 4.61854 7.71303 4.96236C7.36921 5.30618 6.9029 5.49933 6.41667 5.49933H0.916667C0.673552 5.49933 0.440394 5.59591 0.268485 5.76782C0.0965771 5.93972 0 6.17288 0 6.416C0 6.65911 0.0965771 6.89227 0.268485 7.06418C0.440394 7.23609 0.673552 7.33266 0.916667 7.33266Z" fill="white"/>
</g>
<defs>
<clipPath id="clip0_226_142">
<rect width="22" height="22" fill="white"/>
</clipPath>
</defs>
</svg>
