<svg width="80" height="80" viewBox="0 0 80 80" fill="none" xmlns="http://www.w3.org/2000/svg">
<path d="M73.3329 -0.000814227H66.0929C64.7792 -0.00455583 63.4778 0.252503 62.2642 0.755461C61.0506 1.25842 59.9488 1.99727 59.0229 2.92919L31.1529 30.7959C25.8171 29.4191 20.1767 29.8349 15.1005 31.9791C10.0242 34.1233 5.79374 37.877 3.06068 42.662C0.327615 47.447 -0.756427 52.9979 -0.0244708 58.4596C0.707486 63.9213 3.21484 68.9908 7.11137 72.8874C11.0079 76.7839 16.0774 79.2913 21.5391 80.0232C27.0008 80.7552 32.5517 79.6711 37.3367 76.9381C42.1217 74.205 45.8754 69.9745 48.0196 64.8983C50.1638 59.822 50.5796 54.1816 49.2029 48.8459L53.3329 44.7159V36.6659H63.3329V26.6659H71.3796L77.0696 20.9759C78.0011 20.049 78.7397 18.9466 79.2426 17.7325C79.7456 16.5184 80.0028 15.2167 79.9996 13.9025V6.66585C79.9996 4.89774 79.2972 3.20205 78.0469 1.95181C76.7967 0.701565 75.101 -0.000814227 73.3329 -0.000814227ZM73.3329 13.9025C73.3332 14.3408 73.2472 14.7748 73.0796 15.1798C72.912 15.5847 72.6662 15.9527 72.3562 16.2625L68.6196 19.9992H56.6662V29.9992H46.6662V41.9492L41.5162 47.0992C42.6891 49.5691 43.309 52.2651 43.3329 54.9992C43.3329 58.6252 42.2577 62.1697 40.2432 65.1846C38.2287 68.1995 35.3654 70.5494 32.0154 71.937C28.6654 73.3246 24.9792 73.6876 21.4229 72.9802C17.8666 72.2729 14.5999 70.5268 12.0359 67.9628C9.47197 65.3988 7.72589 62.1322 7.01849 58.5758C6.3111 55.0195 6.67416 51.3333 8.06176 47.9833C9.44937 44.6333 11.7992 41.7701 14.8141 39.7556C17.829 37.7411 21.3736 36.6659 24.9996 36.6659C27.7524 36.4859 30.4977 37.1163 32.8962 38.4792L63.7362 7.64252C64.3631 7.02012 65.2096 6.6693 66.0929 6.66585H73.3329V13.9025ZM16.6662 59.9992C16.6662 60.6585 16.8617 61.3029 17.228 61.8511C17.5943 62.3992 18.1149 62.8265 18.7239 63.0788C19.333 63.3311 20.0033 63.3971 20.6499 63.2685C21.2965 63.1399 21.8904 62.8224 22.3566 62.3562C22.8228 61.89 23.1402 61.2961 23.2688 60.6495C23.3975 60.0029 23.3314 59.3327 23.0792 58.7236C22.8269 58.1145 22.3996 57.5939 21.8515 57.2276C21.3033 56.8613 20.6588 56.6658 19.9996 56.6658C19.1155 56.6658 18.2677 57.017 17.6425 57.6422C17.0174 58.2673 16.6662 59.1151 16.6662 59.9992Z" fill="#5850EC"/>
</svg>
