<svg width="61" height="80" viewBox="0 0 61 80" fill="none" xmlns="http://www.w3.org/2000/svg">
<path d="M50.9807 7.62032C46.9121 3.98546 41.9292 1.52893 36.5685 0.51509C31.2077 -0.49875 25.6719 -0.0315141 20.5569 1.86652C15.4419 3.76455 10.9413 7.02151 7.53946 11.2869C4.13764 15.5523 1.96339 20.6646 1.2507 26.0737C0.61063 30.8165 1.12254 35.6437 2.74309 40.1468C4.36365 44.6499 7.04516 48.6963 10.5607 51.9437C12.7347 53.8501 14.489 56.1874 15.7123 58.8074C16.9357 61.4273 17.6014 64.2729 17.6674 67.1637V67.7003C17.6709 70.9614 18.9679 74.0879 21.2738 76.3938C23.5798 78.6998 26.7063 79.9968 29.9674 80.0003H32.034C35.2951 79.9968 38.4216 78.6998 40.7275 76.3938C43.0335 74.0879 44.3305 70.9614 44.334 67.7003V65.8703C44.3839 63.3152 44.9852 60.801 46.0967 58.4998C47.2082 56.1985 48.8037 54.1645 50.774 52.537C53.9693 49.7385 56.5335 46.2929 58.2966 42.4286C60.0598 38.5643 60.9817 34.3694 61.0012 30.1219C61.0207 25.8744 60.1375 21.6712 58.41 17.7908C56.6825 13.9105 54.1501 10.4415 50.9807 7.61365V7.62032ZM32.034 73.3337H29.9674C28.4739 73.3319 27.042 72.7378 25.9859 71.6817C24.9299 70.6257 24.3358 69.1938 24.334 67.7003C24.334 67.7003 24.3107 66.8337 24.3074 66.667H37.6674V67.7003C37.6656 69.1938 37.0715 70.6257 36.0155 71.6817C34.9594 72.7378 33.5275 73.3319 32.034 73.3337ZM46.3674 47.5303C42.5721 50.8221 39.8313 55.1595 38.4874 60.0003H34.334V36.0537C36.2771 35.3667 37.9604 34.0962 39.1537 32.416C40.3471 30.7358 40.9922 28.7279 41.0007 26.667C41.0007 25.7829 40.6495 24.9351 40.0244 24.31C39.3993 23.6848 38.5514 23.3337 37.6674 23.3337C36.7833 23.3337 35.9355 23.6848 35.3103 24.31C34.6852 24.9351 34.334 25.7829 34.334 26.667C34.334 27.551 33.9828 28.3989 33.3577 29.024C32.7326 29.6491 31.8848 30.0003 31.0007 30.0003C30.1166 30.0003 29.2688 29.6491 28.6437 29.024C28.0186 28.3989 27.6674 27.551 27.6674 26.667C27.6674 25.7829 27.3162 24.9351 26.6911 24.31C26.0659 23.6848 25.2181 23.3337 24.334 23.3337C23.45 23.3337 22.6021 23.6848 21.977 24.31C21.3519 24.9351 21.0007 25.7829 21.0007 26.667C21.0092 28.7279 21.6543 30.7358 22.8477 32.416C24.041 34.0962 25.7243 35.3667 27.6674 36.0537V60.0003H23.2607C21.7573 55.031 18.9378 50.5609 15.1007 47.0637C11.8439 44.029 9.52311 40.126 8.41226 35.8153C7.30141 31.5046 7.44685 26.966 8.8314 22.7353C10.2159 18.5046 12.7818 14.7582 16.2263 11.9382C19.6707 9.11824 23.8499 7.34243 28.2707 6.82032C29.1871 6.71802 30.1086 6.66683 31.0307 6.66699C36.7559 6.64997 42.2829 8.7624 46.5374 12.5937C49.003 14.7923 50.9731 17.4899 52.3172 20.5077C53.6612 23.5255 54.3485 26.7945 54.3333 30.0981C54.3182 33.4016 53.6011 36.6642 52.2294 39.6695C50.8578 42.6749 48.863 45.3543 46.3774 47.5303H46.3674Z" fill="#374957"/>
<path d="M50.9807 7.62032C46.9121 3.98546 41.9292 1.52893 36.5685 0.51509C31.2077 -0.49875 25.6719 -0.0315141 20.5569 1.86652C15.4419 3.76455 10.9413 7.02151 7.53946 11.2869C4.13764 15.5523 1.96339 20.6646 1.2507 26.0737C0.61063 30.8165 1.12254 35.6437 2.74309 40.1468C4.36365 44.6499 7.04516 48.6963 10.5607 51.9437C12.7347 53.8501 14.489 56.1874 15.7123 58.8074C16.9357 61.4273 17.6014 64.2729 17.6674 67.1637V67.7003C17.6709 70.9614 18.9679 74.0879 21.2738 76.3938C23.5798 78.6998 26.7063 79.9968 29.9674 80.0003H32.034C35.2951 79.9968 38.4216 78.6998 40.7275 76.3938C43.0335 74.0879 44.3305 70.9614 44.334 67.7003V65.8703C44.3839 63.3152 44.9852 60.801 46.0967 58.4998C47.2082 56.1985 48.8037 54.1645 50.774 52.537C53.9693 49.7385 56.5335 46.2929 58.2966 42.4286C60.0598 38.5643 60.9817 34.3694 61.0012 30.1219C61.0207 25.8744 60.1375 21.6712 58.41 17.7908C56.6825 13.9105 54.1501 10.4415 50.9807 7.61365V7.62032ZM32.034 73.3337H29.9674C28.4739 73.3319 27.042 72.7378 25.9859 71.6817C24.9299 70.6257 24.3358 69.1938 24.334 67.7003C24.334 67.7003 24.3107 66.8337 24.3074 66.667H37.6674V67.7003C37.6656 69.1938 37.0715 70.6257 36.0155 71.6817C34.9594 72.7378 33.5275 73.3319 32.034 73.3337ZM46.3674 47.5303C42.5721 50.8221 39.8313 55.1595 38.4874 60.0003H34.334V36.0537C36.2771 35.3667 37.9604 34.0962 39.1537 32.416C40.3471 30.7358 40.9922 28.7279 41.0007 26.667C41.0007 25.7829 40.6495 24.9351 40.0244 24.31C39.3993 23.6848 38.5514 23.3337 37.6674 23.3337C36.7833 23.3337 35.9355 23.6848 35.3103 24.31C34.6852 24.9351 34.334 25.7829 34.334 26.667C34.334 27.551 33.9828 28.3989 33.3577 29.024C32.7326 29.6491 31.8848 30.0003 31.0007 30.0003C30.1166 30.0003 29.2688 29.6491 28.6437 29.024C28.0186 28.3989 27.6674 27.551 27.6674 26.667C27.6674 25.7829 27.3162 24.9351 26.6911 24.31C26.0659 23.6848 25.2181 23.3337 24.334 23.3337C23.45 23.3337 22.6021 23.6848 21.977 24.31C21.3519 24.9351 21.0007 25.7829 21.0007 26.667C21.0092 28.7279 21.6543 30.7358 22.8477 32.416C24.041 34.0962 25.7243 35.3667 27.6674 36.0537V60.0003H23.2607C21.7573 55.031 18.9378 50.5609 15.1007 47.0637C11.8439 44.029 9.52311 40.126 8.41226 35.8153C7.30141 31.5046 7.44685 26.966 8.8314 22.7353C10.2159 18.5046 12.7818 14.7582 16.2263 11.9382C19.6707 9.11824 23.8499 7.34243 28.2707 6.82032C29.1871 6.71802 30.1086 6.66683 31.0307 6.66699C36.7559 6.64997 42.2829 8.7624 46.5374 12.5937C49.003 14.7923 50.9731 17.4899 52.3172 20.5077C53.6612 23.5255 54.3485 26.7945 54.3333 30.0981C54.3182 33.4016 53.6011 36.6642 52.2294 39.6695C50.8578 42.6749 48.863 45.3543 46.3774 47.5303H46.3674Z" fill="#9E9E9E"/>
</svg>
