<svg width="80" height="80" viewBox="0 0 80 80" fill="none" xmlns="http://www.w3.org/2000/svg">
<g clip-path="url(#clip0_212_29)">
<path d="M59.9807 7.62032C55.9121 3.98546 50.9292 1.52893 45.5685 0.51509C40.2077 -0.49875 34.6719 -0.0315141 29.5569 1.86652C24.4419 3.76455 19.9413 7.02151 16.5395 11.2869C13.1376 15.5523 10.9634 20.6646 10.2507 26.0737C9.61063 30.8165 10.1225 35.6437 11.7431 40.1468C13.3637 44.6499 16.0452 48.6963 19.5607 51.9437C21.7347 53.8501 23.489 56.1874 24.7123 58.8074C25.9357 61.4273 26.6014 64.2729 26.6674 67.1637V67.7003C26.6709 70.9614 27.9679 74.0879 30.2738 76.3938C32.5798 78.6998 35.7063 79.9968 38.9674 80.0003H41.034C44.2951 79.9968 47.4216 78.6998 49.7275 76.3938C52.0335 74.0879 53.3305 70.9614 53.334 67.7003V65.8703C53.3839 63.3152 53.9852 60.801 55.0967 58.4998C56.2082 56.1985 57.8037 54.1645 59.774 52.537C62.9693 49.7385 65.5335 46.2929 67.2966 42.4286C69.0598 38.5643 69.9817 34.3694 70.0012 30.1219C70.0207 25.8744 69.1375 21.6712 67.41 17.7908C65.6825 13.9105 63.1501 10.4415 59.9807 7.61365V7.62032ZM41.034 73.3337H38.9674C37.4739 73.3319 36.042 72.7378 34.9859 71.6817C33.9299 70.6257 33.3358 69.1938 33.334 67.7003C33.334 67.7003 33.3107 66.8337 33.3074 66.667H46.6674V67.7003C46.6656 69.1938 46.0715 70.6257 45.0155 71.6817C43.9594 72.7378 42.5275 73.3319 41.034 73.3337ZM55.3674 47.5303C51.5721 50.8221 48.8313 55.1595 47.4874 60.0003H43.334V36.0537C45.2771 35.3667 46.9604 34.0962 48.1537 32.416C49.3471 30.7358 49.9922 28.7279 50.0007 26.667C50.0007 25.7829 49.6495 24.9351 49.0244 24.31C48.3993 23.6848 47.5514 23.3337 46.6674 23.3337C45.7833 23.3337 44.9355 23.6848 44.3103 24.31C43.6852 24.9351 43.334 25.7829 43.334 26.667C43.334 27.551 42.9828 28.3989 42.3577 29.024C41.7326 29.6491 40.8848 30.0003 40.0007 30.0003C39.1166 30.0003 38.2688 29.6491 37.6437 29.024C37.0186 28.3989 36.6674 27.551 36.6674 26.667C36.6674 25.7829 36.3162 24.9351 35.6911 24.31C35.0659 23.6848 34.2181 23.3337 33.334 23.3337C32.45 23.3337 31.6021 23.6848 30.977 24.31C30.3519 24.9351 30.0007 25.7829 30.0007 26.667C30.0092 28.7279 30.6543 30.7358 31.8477 32.416C33.041 34.0962 34.7243 35.3667 36.6674 36.0537V60.0003H32.2607C30.7573 55.031 27.9378 50.5609 24.1007 47.0637C20.8439 44.029 18.5231 40.126 17.4123 35.8153C16.3014 31.5046 16.4468 26.966 17.8314 22.7353C19.2159 18.5046 21.7818 14.7582 25.2263 11.9382C28.6707 9.11824 32.8499 7.34243 37.2707 6.82032C38.1871 6.71802 39.1086 6.66683 40.0307 6.66699C45.7559 6.64997 51.2829 8.7624 55.5374 12.5937C58.003 14.7923 59.9731 17.4899 61.3172 20.5077C62.6612 23.5255 63.3485 26.7945 63.3333 30.0981C63.3182 33.4016 62.6011 36.6642 61.2294 39.6695C59.8578 42.6749 57.863 45.3543 55.3774 47.5303H55.3674Z" fill="#374957"/>
<path d="M59.9807 7.62032C55.9121 3.98546 50.9292 1.52893 45.5685 0.51509C40.2077 -0.49875 34.6719 -0.0315141 29.5569 1.86652C24.4419 3.76455 19.9413 7.02151 16.5395 11.2869C13.1376 15.5523 10.9634 20.6646 10.2507 26.0737C9.61063 30.8165 10.1225 35.6437 11.7431 40.1468C13.3637 44.6499 16.0452 48.6963 19.5607 51.9437C21.7347 53.8501 23.489 56.1874 24.7123 58.8074C25.9357 61.4273 26.6014 64.2729 26.6674 67.1637V67.7003C26.6709 70.9614 27.9679 74.0879 30.2738 76.3938C32.5798 78.6998 35.7063 79.9968 38.9674 80.0003H41.034C44.2951 79.9968 47.4216 78.6998 49.7275 76.3938C52.0335 74.0879 53.3305 70.9614 53.334 67.7003V65.8703C53.3839 63.3152 53.9852 60.801 55.0967 58.4998C56.2082 56.1985 57.8037 54.1645 59.774 52.537C62.9693 49.7385 65.5335 46.2929 67.2966 42.4286C69.0598 38.5643 69.9817 34.3694 70.0012 30.1219C70.0207 25.8744 69.1375 21.6712 67.41 17.7908C65.6825 13.9105 63.1501 10.4415 59.9807 7.61365V7.62032ZM41.034 73.3337H38.9674C37.4739 73.3319 36.042 72.7378 34.9859 71.6817C33.9299 70.6257 33.3358 69.1938 33.334 67.7003C33.334 67.7003 33.3107 66.8337 33.3074 66.667H46.6674V67.7003C46.6656 69.1938 46.0715 70.6257 45.0155 71.6817C43.9594 72.7378 42.5275 73.3319 41.034 73.3337ZM55.3674 47.5303C51.5721 50.8221 48.8313 55.1595 47.4874 60.0003H43.334V36.0537C45.2771 35.3667 46.9604 34.0962 48.1537 32.416C49.3471 30.7358 49.9922 28.7279 50.0007 26.667C50.0007 25.7829 49.6495 24.9351 49.0244 24.31C48.3993 23.6848 47.5514 23.3337 46.6674 23.3337C45.7833 23.3337 44.9355 23.6848 44.3103 24.31C43.6852 24.9351 43.334 25.7829 43.334 26.667C43.334 27.551 42.9828 28.3989 42.3577 29.024C41.7326 29.6491 40.8848 30.0003 40.0007 30.0003C39.1166 30.0003 38.2688 29.6491 37.6437 29.024C37.0186 28.3989 36.6674 27.551 36.6674 26.667C36.6674 25.7829 36.3162 24.9351 35.6911 24.31C35.0659 23.6848 34.2181 23.3337 33.334 23.3337C32.45 23.3337 31.6021 23.6848 30.977 24.31C30.3519 24.9351 30.0007 25.7829 30.0007 26.667C30.0092 28.7279 30.6543 30.7358 31.8477 32.416C33.041 34.0962 34.7243 35.3667 36.6674 36.0537V60.0003H32.2607C30.7573 55.031 27.9378 50.5609 24.1007 47.0637C20.8439 44.029 18.5231 40.126 17.4123 35.8153C16.3014 31.5046 16.4468 26.966 17.8314 22.7353C19.2159 18.5046 21.7818 14.7582 25.2263 11.9382C28.6707 9.11824 32.8499 7.34243 37.2707 6.82032C38.1871 6.71802 39.1086 6.66683 40.0307 6.66699C45.7559 6.64997 51.2829 8.7624 55.5374 12.5937C58.003 14.7923 59.9731 17.4899 61.3172 20.5077C62.6612 23.5255 63.3485 26.7945 63.3333 30.0981C63.3182 33.4016 62.6011 36.6642 61.2294 39.6695C59.8578 42.6749 57.863 45.3543 55.3774 47.5303H55.3674Z" fill="#5850EC"/>
</g>
<defs>
<clipPath id="clip0_212_29">
<rect width="80" height="80" fill="white"/>
</clipPath>
</defs>
</svg>
