<svg width="228" height="122" viewBox="0 0 228 122" fill="none" xmlns="http://www.w3.org/2000/svg">
<rect width="228" height="122" rx="7" fill="#E3E3E3"/>
<path d="M93.0708 73.28C90.4841 73.28 88.0974 72.68 85.9108 71.48C83.7508 70.2533 82.0308 68.56 80.7508 66.4C79.4974 64.2133 78.8708 61.76 78.8708 59.04C78.8708 56.32 79.4974 53.88 80.7508 51.72C82.0308 49.56 83.7508 47.88 85.9108 46.68C88.0974 45.4533 90.4841 44.84 93.0708 44.84C95.6841 44.84 98.0708 45.4533 100.231 46.68C102.417 47.88 104.137 49.56 105.391 51.72C106.644 53.88 107.271 56.32 107.271 59.04C107.271 61.76 106.644 64.2133 105.391 66.4C104.137 68.56 102.417 70.2533 100.231 71.48C98.0708 72.68 95.6841 73.28 93.0708 73.28ZM93.0708 69.32C94.9108 69.32 96.5508 68.9067 97.9908 68.08C99.4308 67.2267 100.551 66.0267 101.351 64.48C102.177 62.9067 102.591 61.0933 102.591 59.04C102.591 56.9867 102.177 55.1867 101.351 53.64C100.551 52.0933 99.4308 50.9067 97.9908 50.08C96.5508 49.2533 94.9108 48.84 93.0708 48.84C91.2308 48.84 89.5908 49.2533 88.1508 50.08C86.7108 50.9067 85.5774 52.0933 84.7508 53.64C83.9508 55.1867 83.5508 56.9867 83.5508 59.04C83.5508 61.0933 83.9508 62.9067 84.7508 64.48C85.5774 66.0267 86.7108 67.2267 88.1508 68.08C89.5908 68.9067 91.2308 69.32 93.0708 69.32ZM128.118 45.2V48.92H116.318V57.12H125.518V60.84H116.318V73H111.758V45.2H128.118ZM148.704 45.2V48.92H136.904V57.12H146.104V60.84H136.904V73H132.344V45.2H148.704Z" fill="#5850EC"/>
<path d="M93.0708 73.28C90.4841 73.28 88.0974 72.68 85.9108 71.48C83.7508 70.2533 82.0308 68.56 80.7508 66.4C79.4974 64.2133 78.8708 61.76 78.8708 59.04C78.8708 56.32 79.4974 53.88 80.7508 51.72C82.0308 49.56 83.7508 47.88 85.9108 46.68C88.0974 45.4533 90.4841 44.84 93.0708 44.84C95.6841 44.84 98.0708 45.4533 100.231 46.68C102.417 47.88 104.137 49.56 105.391 51.72C106.644 53.88 107.271 56.32 107.271 59.04C107.271 61.76 106.644 64.2133 105.391 66.4C104.137 68.56 102.417 70.2533 100.231 71.48C98.0708 72.68 95.6841 73.28 93.0708 73.28ZM93.0708 69.32C94.9108 69.32 96.5508 68.9067 97.9908 68.08C99.4308 67.2267 100.551 66.0267 101.351 64.48C102.177 62.9067 102.591 61.0933 102.591 59.04C102.591 56.9867 102.177 55.1867 101.351 53.64C100.551 52.0933 99.4308 50.9067 97.9908 50.08C96.5508 49.2533 94.9108 48.84 93.0708 48.84C91.2308 48.84 89.5908 49.2533 88.1508 50.08C86.7108 50.9067 85.5774 52.0933 84.7508 53.64C83.9508 55.1867 83.5508 56.9867 83.5508 59.04C83.5508 61.0933 83.9508 62.9067 84.7508 64.48C85.5774 66.0267 86.7108 67.2267 88.1508 68.08C89.5908 68.9067 91.2308 69.32 93.0708 69.32ZM128.118 45.2V48.92H116.318V57.12H125.518V60.84H116.318V73H111.758V45.2H128.118ZM148.704 45.2V48.92H136.904V57.12H146.104V60.84H136.904V73H132.344V45.2H148.704Z" fill="#9E9E9E"/>
</svg>
