<svg width="228" height="122" viewBox="0 0 228 122" fill="none" xmlns="http://www.w3.org/2000/svg">
<rect width="228" height="122" rx="7" fill="#5850EC"/>
<path d="M99.2427 73.28C96.656 73.28 94.2693 72.68 92.0827 71.48C89.9227 70.2533 88.2027 68.56 86.9227 66.4C85.6693 64.2133 85.0427 61.76 85.0427 59.04C85.0427 56.32 85.6693 53.88 86.9227 51.72C88.2027 49.56 89.9227 47.88 92.0827 46.68C94.2693 45.4533 96.656 44.84 99.2427 44.84C101.856 44.84 104.243 45.4533 106.403 46.68C108.589 47.88 110.309 49.56 111.563 51.72C112.816 53.88 113.443 56.32 113.443 59.04C113.443 61.76 112.816 64.2133 111.563 66.4C110.309 68.56 108.589 70.2533 106.403 71.48C104.243 72.68 101.856 73.28 99.2427 73.28ZM99.2427 69.32C101.083 69.32 102.723 68.9067 104.163 68.08C105.603 67.2267 106.723 66.0267 107.523 64.48C108.349 62.9067 108.763 61.0933 108.763 59.04C108.763 56.9867 108.349 55.1867 107.523 53.64C106.723 52.0933 105.603 50.9067 104.163 50.08C102.723 49.2533 101.083 48.84 99.2427 48.84C97.4027 48.84 95.7627 49.2533 94.3227 50.08C92.8827 50.9067 91.7493 52.0933 90.9227 53.64C90.1227 55.1867 89.7227 56.9867 89.7227 59.04C89.7227 61.0933 90.1227 62.9067 90.9227 64.48C91.7493 66.0267 92.8827 67.2267 94.3227 68.08C95.7627 68.9067 97.4027 69.32 99.2427 69.32ZM140.77 73H136.21L122.49 52.24V73H117.93V45.16H122.49L136.21 65.88V45.16H140.77V73Z" fill="#5850EC"/>
<path d="M99.2427 73.28C96.656 73.28 94.2693 72.68 92.0827 71.48C89.9227 70.2533 88.2027 68.56 86.9227 66.4C85.6693 64.2133 85.0427 61.76 85.0427 59.04C85.0427 56.32 85.6693 53.88 86.9227 51.72C88.2027 49.56 89.9227 47.88 92.0827 46.68C94.2693 45.4533 96.656 44.84 99.2427 44.84C101.856 44.84 104.243 45.4533 106.403 46.68C108.589 47.88 110.309 49.56 111.563 51.72C112.816 53.88 113.443 56.32 113.443 59.04C113.443 61.76 112.816 64.2133 111.563 66.4C110.309 68.56 108.589 70.2533 106.403 71.48C104.243 72.68 101.856 73.28 99.2427 73.28ZM99.2427 69.32C101.083 69.32 102.723 68.9067 104.163 68.08C105.603 67.2267 106.723 66.0267 107.523 64.48C108.349 62.9067 108.763 61.0933 108.763 59.04C108.763 56.9867 108.349 55.1867 107.523 53.64C106.723 52.0933 105.603 50.9067 104.163 50.08C102.723 49.2533 101.083 48.84 99.2427 48.84C97.4027 48.84 95.7627 49.2533 94.3227 50.08C92.8827 50.9067 91.7493 52.0933 90.9227 53.64C90.1227 55.1867 89.7227 56.9867 89.7227 59.04C89.7227 61.0933 90.1227 62.9067 90.9227 64.48C91.7493 66.0267 92.8827 67.2267 94.3227 68.08C95.7627 68.9067 97.4027 69.32 99.2427 69.32ZM140.77 73H136.21L122.49 52.24V73H117.93V45.16H122.49L136.21 65.88V45.16H140.77V73Z" fill="white"/>
</svg>
