<svg width="80" height="80" viewBox="0 0 80 80" fill="none" xmlns="http://www.w3.org/2000/svg">
<g clip-path="url(#clip0_222_225)">
<path d="M26.6667 43.3333H0V36.6667H26.6667V43.3333ZM69.7167 37.02C71.3719 34.9364 72.5042 32.4868 73.0187 29.876C73.5333 27.2652 73.4153 24.5691 72.6745 22.0132C71.9337 19.4574 70.5917 17.1161 68.7607 15.1851C66.9297 13.2541 64.663 11.7897 62.1501 10.9142C59.6372 10.0387 56.9512 9.77761 54.3167 10.1528C51.6823 10.528 49.176 11.5286 47.0074 13.0708C44.8388 14.613 43.0711 16.6521 41.852 19.0174C40.6328 21.3828 39.9978 24.0056 40 26.6667V30H46.6667V26.6667C46.6667 24.6889 47.2532 22.7555 48.352 21.111C49.4508 19.4665 51.0126 18.1847 52.8398 17.4279C54.6671 16.671 56.6778 16.473 58.6176 16.8588C60.5574 17.2447 62.3392 18.1971 63.7377 19.5956C65.1363 20.9941 66.0887 22.776 66.4745 24.7158C66.8604 26.6556 66.6623 28.6662 65.9055 30.4935C65.1486 32.3208 63.8669 33.8826 62.2224 34.9814C60.5779 36.0802 58.6445 36.6667 56.6667 36.6667H33.3333V43.3333H66.6667C67.9852 43.3333 69.2742 43.7243 70.3705 44.4569C71.4668 45.1894 72.3213 46.2306 72.8259 47.4488C73.3305 48.667 73.4625 50.0074 73.2052 51.3006C72.948 52.5938 72.3131 53.7817 71.3807 54.7141C70.4484 55.6464 69.2605 56.2813 67.9673 56.5386C66.6741 56.7958 65.3336 56.6638 64.1154 56.1592C62.8973 55.6546 61.8561 54.8001 61.1235 53.7038C60.391 52.6075 60 51.3185 60 50H53.3333C53.3334 52.5062 54.0397 54.9616 55.3714 57.0847C56.7031 59.2078 58.6062 60.9126 60.8625 62.0035C63.1188 63.0945 65.6368 63.5275 68.1279 63.2528C70.619 62.9782 72.9822 62.007 74.9466 60.4507C76.911 58.8944 78.3969 56.8159 79.2341 54.4537C80.0713 52.0915 80.2257 49.5412 79.6798 47.0952C79.1338 44.6492 77.9095 42.4066 76.1473 40.6246C74.3852 38.8426 72.1564 37.5933 69.7167 37.02ZM36.6667 53.3333H0V60H36.6667C37.9852 60 39.2741 60.391 40.3705 61.1235C41.4668 61.8561 42.3213 62.8973 42.8259 64.1154C43.3305 65.3336 43.4625 66.6741 43.2052 67.9673C42.948 69.2605 42.3131 70.4484 41.3807 71.3807C40.4484 72.3131 39.2605 72.948 37.9673 73.2052C36.6741 73.4625 35.3336 73.3305 34.1154 72.8259C32.8973 72.3213 31.8561 71.4668 31.1235 70.3705C30.391 69.2742 30 67.9852 30 66.6667H23.3333C23.3333 69.3038 24.1153 71.8816 25.5804 74.0743C27.0455 76.2669 29.1279 77.9759 31.5642 78.9851C34.0006 79.9942 36.6815 80.2583 39.2679 79.7438C41.8543 79.2293 44.2301 77.9595 46.0948 76.0948C47.9595 74.2301 49.2293 71.8543 49.7438 69.2679C50.2583 66.6815 49.9942 64.0006 48.9851 61.5642C47.9759 59.1279 46.2669 57.0455 44.0743 55.5804C41.8816 54.1153 39.3038 53.3333 36.6667 53.3333ZM36.6667 13.3333C36.6667 9.79711 35.2619 6.40573 32.7614 3.90524C30.2609 1.40476 26.8696 0 23.3333 0C19.7971 0 16.4057 1.40476 13.9052 3.90524C11.4048 6.40573 10 9.79711 10 13.3333H16.6667C16.6667 12.0148 17.0577 10.7259 17.7902 9.62953C18.5227 8.53321 19.5639 7.67872 20.7821 7.17414C22.0003 6.66955 23.3407 6.53753 24.6339 6.79477C25.9271 7.052 27.115 7.68694 28.0474 8.61929C28.9797 9.55164 29.6147 10.7395 29.8719 12.0327C30.1291 13.3259 29.9971 14.6664 29.4925 15.8846C28.9879 17.1027 28.1335 18.1439 27.0371 18.8765C25.9408 19.609 24.6519 20 23.3333 20H0V26.6667H23.3333C26.8696 26.6667 30.2609 25.2619 32.7614 22.7614C35.2619 20.2609 36.6667 16.8696 36.6667 13.3333Z" fill="#9E9E9E"/>
</g>
<defs>
<clipPath id="clip0_222_225">
<rect width="80" height="80" fill="white"/>
</clipPath>
</defs>
</svg>
