<svg width="80" height="80" viewBox="0 0 80 80" fill="none" xmlns="http://www.w3.org/2000/svg">
<g clip-path="url(#clip0_222_168)">
<path d="M36.6667 36.6667H0V10C0 7.34784 1.05357 4.8043 2.92893 2.92893C4.8043 1.05357 7.34784 0 10 0L36.6667 0V36.6667ZM6.66667 30H30V6.66667H10C9.11595 6.66667 8.2681 7.01786 7.64298 7.64298C7.01786 8.2681 6.66667 9.11595 6.66667 10V30Z" fill="#5850EC"/>
<path d="M79.9994 36.6667H43.3328V0H69.9995C72.6516 0 75.1952 1.05357 77.0705 2.92893C78.9459 4.8043 79.9994 7.34784 79.9994 10V36.6667ZM49.9995 30H73.3328V10C73.3328 9.11595 72.9816 8.2681 72.3565 7.64298C71.7314 7.01786 70.8835 6.66667 69.9995 6.66667H49.9995V30Z" fill="#5850EC"/>
<path d="M36.6667 79.9999H10C7.34784 79.9999 4.8043 78.9463 2.92893 77.0709C1.05357 75.1956 0 72.6521 0 69.9999L0 43.3333H36.6667V79.9999ZM6.66667 49.9999V69.9999C6.66667 70.8839 7.01786 71.7318 7.64298 72.3569C8.2681 72.982 9.11595 73.3332 10 73.3332H30V49.9999H6.66667Z" fill="#5850EC"/>
<path d="M69.9995 79.9999H43.3328V43.3333H79.9994V69.9999C79.9994 72.6521 78.9459 75.1956 77.0705 77.0709C75.1952 78.9463 72.6516 79.9999 69.9995 79.9999ZM49.9995 73.3332H69.9995C70.8835 73.3332 71.7314 72.982 72.3565 72.3569C72.9816 71.7318 73.3328 70.8839 73.3328 69.9999V49.9999H49.9995V73.3332Z" fill="#5850EC"/>
</g>
<defs>
<clipPath id="clip0_222_168">
<rect width="80" height="80" fill="white"/>
</clipPath>
</defs>
</svg>
